<?xml version="1.0" encoding="UTF-8"?>
<svg width="160px" height="46px" viewBox="0 0 160 46" version="1.1" xmlns="http://www.w3.org/2000/svg" xmlns:xlink="http://www.w3.org/1999/xlink">
    <title>Logo</title>
    <g id="LOGO" stroke="none" stroke-width="1" fill="none" fill-rule="evenodd">
        <g id="SGTLogo" transform="translate(-227.000000, -144.000000)" fill="#000000">
            <g id="LOGO" transform="translate(227.000000, 144.000000)">
                <path d="M71.8776264,39.2424615 C72.2644396,39.2424615 72.6037802,39.3136703 72.9026813,39.4560879 C73.1998242,39.5993846 73.4503736,39.7936703 73.6552088,40.0380659 C73.8591648,40.2833407 74.0121319,40.562022 74.1132308,40.8741099 C74.2160879,41.1861978 74.2661978,41.5114725 74.2661978,41.8490549 C74.2661978,42.2226813 74.2011429,42.5883956 74.0701538,42.9470769 C73.9382857,43.3057582 73.7563077,43.6415824 73.5224615,43.9536703 C73.2894945,44.2657582 73.0160879,44.5409231 72.7004835,44.780044 C72.3857582,45.0191648 72.0429011,45.2055385 71.6683956,45.340044 C71.2956484,45.4745495 70.9070769,45.5413626 70.5053187,45.5413626 C70.1202637,45.5413626 69.7774066,45.4701538 69.4767473,45.3268571 C69.1760879,45.1835604 68.9246593,44.9901538 68.7207033,44.7448791 C68.5158681,44.5004835 68.362022,44.2218022 68.2565275,43.9097143 C68.151033,43.5976264 68.0991648,43.2723516 68.0991648,42.9338901 C68.0991648,42.5611429 68.1650989,42.1936703 68.2960879,41.8314725 C68.4270769,41.4701538 68.6108132,41.1334505 68.8472967,40.8213626 C69.0837802,40.5092747 69.3598242,40.234989 69.6789451,39.9985055 C69.9963077,39.7629011 70.3418022,39.5774066 70.7145495,39.4437802 C71.0881758,39.3092747 71.4758681,39.2424615 71.8776264,39.2424615 Z M114.797011,39.2424615 C115.182066,39.2424615 115.523165,39.3136703 115.821187,39.4560879 C116.11833,39.5993846 116.368879,39.7936703 116.572835,40.0380659 C116.77767,40.2833407 116.929758,40.562022 117.032615,40.8741099 C117.134593,41.1861978 117.184703,41.5114725 117.184703,41.8490549 C117.184703,42.2226813 117.119648,42.5883956 116.988659,42.9470769 C116.856791,43.3057582 116.674813,43.6415824 116.441846,43.9536703 C116.208,44.2657582 115.934593,44.5409231 115.618989,44.780044 C115.305143,45.0191648 114.960527,45.2055385 114.586901,45.340044 C114.214154,45.4745495 113.825582,45.5413626 113.423824,45.5413626 C113.038769,45.5413626 112.695912,45.4701538 112.395253,45.3268571 C112.094593,45.1835604 111.843165,44.9901538 111.639209,44.7448791 C111.434374,44.5004835 111.280527,44.2218022 111.175033,43.9097143 C111.069538,43.5976264 111.01767,43.2723516 111.01767,42.9338901 C111.01767,42.5611429 111.083604,42.1936703 111.214593,41.8314725 C111.345582,41.4701538 111.529319,41.1334505 111.765802,40.8213626 C112.002286,40.5092747 112.27833,40.234989 112.597451,39.9985055 C112.914813,39.7629011 113.260308,39.5774066 113.633055,39.4437802 C114.006681,39.3092747 114.395253,39.2424615 114.797011,39.2424615 Z M58.9309011,39.2860659 L58.2487033,42.4728791 C58.224967,42.5836484 58.2082637,42.690022 58.195956,42.792 C58.1845275,42.893978 58.1792527,42.9941978 58.1792527,43.0935385 C58.1792527,43.2737582 58.2021099,43.4337582 58.2487033,43.5735385 C58.2952967,43.7133187 58.3709011,43.8240879 58.4755165,43.904967 C58.5818901,43.9867253 58.7181538,44.0271648 58.8869451,44.0271648 C59.0618901,44.0271648 59.2201319,43.984967 59.3599121,43.9005714 C59.4996923,43.8161758 59.6254066,43.7001319 59.7361758,43.5515604 C59.8469451,43.402989 59.9401319,43.235956 60.0157363,43.0495824 C60.0913407,42.8632088 60.1502418,42.6706813 60.1915604,42.4728791 L60.8737582,39.2860659 L62.5792527,39.2860659 L61.8970549,42.4746374 C61.8038681,42.9054066 61.6632088,43.3071648 61.4768352,43.6799121 C61.2904615,44.0526593 61.0574945,44.3788132 60.7770549,44.6583736 C60.4966154,44.9379341 60.1722198,45.1550769 59.8012308,45.3098022 C59.4311209,45.4636484 59.0188132,45.541011 58.5634286,45.541011 C58.0561758,45.541011 57.6465055,45.4478242 57.3344176,45.2614505 C57.0223297,45.0750769 56.7946374,44.8201319 56.6522198,44.4974945 C56.5089231,44.173978 56.4377143,43.8109011 56.4377143,43.4091429 C56.4377143,43.2579341 56.4465055,43.104967 56.4640879,42.9511209 C56.4816703,42.7963956 56.508044,42.6381538 56.5432088,42.4746374 L57.2254066,39.2860659 L58.9309011,39.2860659 Z M103.318857,39.2421099 C103.610725,39.2421099 103.885011,39.2781538 104.141714,39.3511209 C104.398418,39.4240879 104.634022,39.5137582 104.851165,39.6183736 C105.066549,39.722989 105.252923,39.8223297 105.410286,39.9155165 L104.378352,41.3211531 L104.369357,41.3105125 L104.272703,41.2368352 L104.272703,41.2368352 C104.191824,41.1788132 104.081055,41.1128791 103.940396,41.0399121 C103.800615,40.9669451 103.643253,40.9018901 103.468308,40.842989 C103.293363,40.784967 103.118418,40.755956 102.943473,40.755956 C102.861714,40.755956 102.784352,40.7682637 102.711385,40.7946374 C102.638418,40.8201319 102.581275,40.8596923 102.540835,40.9115604 C102.500396,40.9634286 102.479297,41.0328791 102.479297,41.1199121 C102.479297,41.2060659 102.518857,41.279033 102.597978,41.3361758 C102.67622,41.3941978 102.78611,41.4478242 102.92589,41.4970549 L103.233061,41.6086707 L103.233061,41.6086707 L103.406769,41.6746374 C103.68633,41.7783736 103.933363,41.8926593 104.14611,42.0166154 C104.358857,42.1414505 104.523253,42.2961758 104.640176,42.4807912 C104.757099,42.6654066 104.815121,42.9027692 104.815121,43.192 C104.815121,43.6306813 104.734242,44.0007912 104.570725,44.3014505 C104.407209,44.6021099 104.191824,44.842989 103.923692,45.024967 C103.654681,45.2078242 103.360176,45.3388132 103.039297,45.4196923 C102.719297,45.5005714 102.400176,45.541011 102.08633,45.541011 C101.660835,45.541011 101.22567,45.4741978 100.782593,45.3396923 C100.339516,45.2060659 99.9632527,45.0302418 99.6538022,44.8148571 L100.704352,43.3185934 L100.72012,43.3354725 L100.72012,43.3354725 L100.830066,43.4240879 L100.830066,43.4240879 C100.921495,43.4935385 101.048967,43.5726593 101.216,43.6596923 C101.381275,43.7476044 101.569407,43.8258462 101.779516,43.8961758 C101.989626,43.9656264 102.208527,44.0016703 102.435341,44.0016703 C102.569846,44.0016703 102.669187,43.9858462 102.733363,43.9550769 C102.797538,43.9243077 102.839736,43.8847473 102.859956,43.8372747 C102.880176,43.7898022 102.890725,43.7405714 102.890725,43.6904615 C102.890725,43.5858462 102.835341,43.5005714 102.724571,43.4346374 C102.641495,43.3845275 102.54111,43.3373846 102.423418,43.2939505 L102.299956,43.2517802 C102.128527,43.1963956 101.946549,43.1313407 101.753143,43.0557363 C101.49644,42.952 101.283692,42.8377143 101.114901,42.7128791 C100.945231,42.5889231 100.819516,42.4421099 100.734242,42.2741978 C100.649846,42.1062857 100.606769,41.9128791 100.606769,41.6922198 C100.606769,41.3045275 100.684132,40.9581538 100.838857,40.653978 C100.993582,40.3498022 101.201934,40.093978 101.464791,39.8847473 C101.727648,39.6763956 102.018637,39.5172747 102.339516,39.4073846 C102.660396,39.2966154 102.986549,39.2421099 103.318857,39.2421099 Z M35.5316044,33.8789451 C36.5425934,33.8789451 37.3997363,34.111033 38.0784176,34.5664176 C38.693978,34.9802198 39.1308044,35.5300308 39.3799244,36.2023921 L39.456,36.431033 L39.4938022,36.5567473 L36.9557802,38.2007033 L36.8951209,37.9633407 C36.7808352,37.5158681 36.5478681,37.1589451 36.2023736,36.9031209 C35.8542418,36.6464176 35.4384176,36.5154286 34.968967,36.5154286 C34.5417143,36.5154286 34.1311648,36.6218022 33.7461099,36.831033 C33.3566593,37.0437802 33.005011,37.3365275 32.7025934,37.704 C32.3984176,38.0723516 32.1557802,38.4996044 31.9808352,38.9743297 C31.8067692,39.4490549 31.717978,39.9580659 31.717978,40.4864176 C31.717978,40.9505934 31.7970989,41.3690549 31.9535824,41.7312527 C32.1065495,42.0846593 32.3280879,42.3650989 32.6129231,42.5637802 C32.8942418,42.7607033 33.2388571,42.8609231 33.6388571,42.8609231 C34.0977582,42.8609231 34.5724835,42.7308132 35.0498462,42.474989 C35.3787839,42.2991648 35.7150476,42.0549646 36.0708474,41.7342483 L36.2867692,41.5325714 L36.3017143,41.4604835 L34.2647912,41.4604835 L34.7491868,39.2626813 L39.2538022,39.2626813 L37.9439121,45.4191648 L35.4727033,45.4191648 L35.6546813,44.5488352 C35.2907253,44.8116923 34.9452308,45.0112527 34.6076484,45.1545495 C34.0713846,45.3813626 33.5034725,45.4974066 32.9188571,45.4974066 C32.3236923,45.4974066 31.7601758,45.3813626 31.2441319,45.1536703 C30.7272088,44.9250989 30.277978,44.5998242 29.9087473,44.1866374 C29.5412747,43.776967 29.2485275,43.2758681 29.0375385,42.6982857 C28.8283077,42.1233407 28.7219341,41.4789451 28.7219341,40.7835604 C28.7219341,39.8446593 28.9118242,38.9470769 29.2845714,38.1136703 C29.6573187,37.2837802 30.1724835,36.5418022 30.8168791,35.9097143 C31.4595165,35.2767473 32.1935824,34.7756484 32.9962198,34.4187253 C33.8041319,34.0609231 34.6568791,33.8789451 35.5316044,33.8789451 Z M24.8912527,33.8796484 C25.4055385,33.8796484 25.8978462,33.9447033 26.354989,34.0739341 C26.8068571,34.2014066 27.2261978,34.3631648 27.5998242,34.5565714 C27.8780659,34.6996484 28.1325714,34.8476703 28.3600027,34.9984121 L28.5782857,35.149978 L28.7215824,35.2545934 L26.8525714,37.7592088 L26.7453516,37.4531531 L26.5607033,37.3090989 C26.4156484,37.1992088 26.2248791,37.0822857 25.9901538,36.9565714 C25.7563077,36.8326154 25.4908132,36.7262418 25.2015824,36.6418462 C24.9158681,36.5583297 24.6213626,36.5161319 24.3277363,36.5161319 C24.071033,36.5161319 23.8433407,36.5556923 23.6516923,36.6348132 C23.4705934,36.7095385 23.3325714,36.8115165 23.2437802,36.9381099 C23.1558681,37.0620659 23.111033,37.2264615 23.111033,37.426022 C23.111033,37.5701978 23.1655385,37.6827253 23.2824615,37.7785495 C23.4222418,37.8945934 23.6226813,37.9992088 23.8785055,38.0897582 L24.5814451,38.3320659 C24.6687802,38.3612967 24.7591648,38.3912967 24.8525714,38.4220659 C25.3941099,38.6014066 25.8723516,38.8071209 26.2758681,39.0330549 C26.6943297,39.2686593 27.0275165,39.5631648 27.2657582,39.9095385 C27.5101538,40.2638242 27.6332308,40.7218462 27.6332308,41.2721758 C27.6332308,42.0326154 27.4864176,42.6893187 27.1971868,43.2255824 C26.9097143,43.7592088 26.5141099,44.2005275 26.0226813,44.5354725 C25.540044,44.866022 25.0002637,45.1121758 24.420044,45.266022 C23.8442198,45.4198681 23.2499341,45.4972308 22.6538901,45.4972308 C21.8556484,45.4972308 21.060044,45.368 20.2908132,45.1130549 C19.6284584,44.8937771 19.0429639,44.6079731 18.5459556,44.2611791 L18.3048791,44.0827253 L18.173011,43.9798681 L20.0675165,41.3055824 L20.1765275,41.6361319 L20.2364307,41.7012945 L20.2364307,41.7012945 L20.3371221,41.7892065 C20.3593308,41.8072913 20.3845024,41.8271523 20.413011,41.8488791 C20.5826813,41.9781099 20.813011,42.117011 21.0978462,42.2620659 C21.3861978,42.4088791 21.714989,42.538989 22.0719121,42.6497582 C22.4226813,42.7587692 22.7971868,42.8141538 23.1857582,42.8141538 C23.4952088,42.8141538 23.7448791,42.7772308 23.9268571,42.7042637 C24.0921319,42.6383297 24.2108132,42.5469011 24.2793846,42.4334945 C24.3514725,42.3121758 24.3866374,42.175033 24.3866374,42.0115165 C24.3866374,41.8515165 24.3101538,41.717011 24.1527912,41.6018462 C23.9664176,41.4629451 23.7114725,41.3407473 23.3976264,41.2387692 L23.1398379,41.1530549 L23.1398379,41.1530549 L22.5889863,40.9618462 C22.4932857,40.9277802 22.3956484,40.8926154 22.2960879,40.8563516 C21.7967473,40.677011 21.3677363,40.4721758 21.024,40.2471209 C20.6688352,40.0159121 20.3971868,39.7372308 20.2160879,39.4181099 C20.034989,39.0972308 19.9426813,38.7156923 19.9426813,38.2822857 C19.9426813,37.5842637 20.0842198,36.9530549 20.3611429,36.408 C20.6371868,35.8647033 21.016967,35.4014066 21.4890549,35.0286593 C21.9558681,34.6603077 22.4894945,34.3737143 23.074989,34.1767912 C23.6596044,33.978989 24.2705934,33.8796484 24.8912527,33.8796484 Z M92.0517802,39.2856264 L92.7427692,45.4974945 L91.0109011,45.4974945 L90.9660659,44.2807912 L89.4504615,44.2807912 L88.8930989,45.4974945 L87.1524396,45.4974945 L90.4860659,39.2856264 L92.0517802,39.2856264 Z M82.2791209,39.2858022 L81.9652747,40.7732747 L80.3028571,40.7732747 L79.2971429,45.4976703 L77.5898901,45.4976703 L78.5964835,40.7732747 L76.9261538,40.7732747 L77.2417582,39.2858022 L82.2791209,39.2858022 Z M68.3346813,39.2858022 L68.0208352,40.7732747 L66.3575385,40.7732747 L65.3527033,45.4976703 L63.6454505,45.4976703 L64.652044,40.7732747 L62.9817143,40.7732747 L63.2964396,39.2858022 L68.3346813,39.2858022 Z M129.047648,39.2858022 L128.733802,40.7732747 L127.070505,40.7732747 L126.06567,45.4976703 L124.358418,45.4976703 L125.365011,40.7732747 L123.694681,40.7732747 L124.009407,39.2858022 L129.047648,39.2858022 Z M121.42822,39.285978 C121.765802,39.285978 122.054154,39.3721319 122.289758,39.5435604 C122.526242,39.7158681 122.707341,39.9391648 122.832176,40.2134505 C122.95789,40.4877363 123.020308,40.7760879 123.020308,41.0793846 C123.020308,41.2833407 122.991297,41.4864176 122.933275,41.6868571 C122.874374,41.8881758 122.790857,42.0824615 122.683604,42.2688352 C122.575473,42.4560879 122.446242,42.6292747 122.294154,42.7892747 C122.142945,42.9501538 121.974154,43.0916923 121.786901,43.2138901 L122.530637,45.496967 L120.606242,45.496967 L120.002286,43.5901538 L119.486242,43.5901538 L119.084484,45.496967 L117.377231,45.496967 L118.698549,39.285978 L121.42822,39.285978 Z M54.8892308,39.2861538 L55.5810989,45.4971429 L53.8483516,45.4971429 L53.8026374,44.2813187 L52.2879121,44.2813187 L51.7305495,45.4971429 L49.9898901,45.4971429 L53.3235165,39.2861538 L54.8892308,39.2861538 Z M85.8229451,39.285978 C86.1605275,39.285978 86.4488791,39.3721319 86.6844835,39.5435604 C86.920967,39.7158681 87.1020659,39.9391648 87.2269011,40.2134505 C87.3526154,40.4877363 87.415033,40.7760879 87.415033,41.0793846 C87.415033,41.2833407 87.386022,41.4864176 87.328,41.6868571 C87.2690989,41.8881758 87.1855824,42.0824615 87.0783297,42.2688352 C86.9701978,42.4560879 86.840967,42.6292747 86.6888791,42.7892747 C86.5376703,42.9501538 86.3688791,43.0916923 86.1816264,43.2138901 L86.9253626,45.496967 L85.000967,45.496967 L84.397011,43.5901538 L83.880967,43.5901538 L83.4792088,45.496967 L81.771956,45.496967 L83.0932747,39.285978 L85.8229451,39.285978 Z M109.181451,39.285978 C109.513758,39.285978 109.799473,39.3721319 110.037714,39.5435604 C110.277714,39.7158681 110.459692,39.9391648 110.584527,40.2134505 C110.710242,40.4877363 110.772659,40.7760879 110.772659,41.0793846 C110.772659,41.3826813 110.708484,41.6824615 110.580132,41.9804835 C110.452659,42.2776264 110.274198,42.5475165 110.046505,42.7892747 C109.819692,43.0319121 109.556835,43.2253187 109.258813,43.3712527 C108.962549,43.5171868 108.644308,43.5901538 108.305846,43.5901538 L107.413538,43.5901538 L107.01178,45.496967 L105.304527,45.496967 L106.625846,39.285978 L109.181451,39.285978 Z M96.0494945,39.2858901 L97.624,42.4436923 L98.2894945,39.2858901 L99.994989,39.2858901 L98.6736703,45.4968791 L97.3268571,45.4968791 L95.7523516,42.4436923 L95.1044396,45.4968791 L93.3980659,45.4968791 L94.7193846,39.2858901 L96.0494945,39.2858901 Z M50.5236923,33.957978 L49.9803956,36.5628132 L46.8190769,36.5628132 L44.9263297,45.4190769 L42.0006154,45.4190769 L43.8942418,36.5628132 L40.7012747,36.5628132 L41.2621538,33.957978 L50.5236923,33.957978 Z M47.9414505,2.03358242 C37.9020752,8.52686177 35.7639363,19.8491594 37.3449953,27.3991044 L37.4704829,27.9581427 C37.7571987,29.1534848 38.1393638,30.243535 38.599033,31.1913846 L24.4733187,31.216 C20.9709011,31.2239121 17.9054066,33.5905055 17.0007912,36.9733626 L16.808116,37.6816527 L16.808116,37.6816527 L16.6175388,38.3424836 L16.6175388,38.3424836 L16.4660236,38.8499295 L16.4660236,38.8499295 L16.2350187,39.5883097 L16.2350187,39.5883097 L16.0763931,40.0639375 C16.0226982,40.2201268 15.9681025,40.3739083 15.9123619,40.5251181 L15.7414618,40.9708689 L15.7414618,40.9708689 L15.562229,41.400207 C14.5814987,43.6444962 13.1827964,45.1465808 10.3669783,45.2355553 L10.0988132,45.2397363 L0.000351648352,45.2397363 L3.09573626,34.2700659 L5.00342857,33.6186374 L5.00342857,33.6186374 C5.61178022,33.412044 6.09881319,32.9496264 6.33793407,32.3544615 L6.56914286,31.7821538 L3.69178022,31.7680879 L3.76283444,31.4236627 L3.76283444,31.4236627 L3.88919222,30.8997439 L3.88919222,30.8997439 L3.95981751,30.6339249 L3.95981751,30.6339249 L4.04275202,30.3394686 L4.04275202,30.3394686 L4.13855156,30.0187129 L4.13855156,30.0187129 L4.24777194,29.6739956 L4.24777194,29.6739956 L4.37096895,29.3076542 L4.37096895,29.3076542 L4.50869841,28.9220266 L4.50869841,28.9220266 L4.66151611,28.5194504 L4.66151611,28.5194504 L4.82997786,28.1022635 L4.82997786,28.1022635 L5.01463946,27.6728035 L5.01463946,27.6728035 L5.21605671,27.2334082 C5.32104688,27.0116163 5.43252885,26.7869753 5.55081525,26.5608002 L5.79655327,26.106794 C7.53902504,22.9957659 10.5913434,19.7619341 15.7515604,19.7619341 C20.355833,19.7619341 22.9353016,18.6363204 24.605889,17.3744135 L24.891491,17.1505106 L24.891491,17.1505106 L25.1595862,16.9249863 L25.1595862,16.9249863 L25.4115376,16.6990488 L25.4115376,16.6990488 L25.7621761,16.3620107 L25.7621761,16.3620107 L26.0841567,16.0308392 L26.0841567,16.0308392 L26.4768352,15.6054505 L26.4768352,15.6054505 C26.723362,15.3337489 26.9866607,14.9552846 27.2485234,14.5275761 L27.4722008,14.1502505 L27.4722008,14.1502505 L27.6926268,13.7568547 L27.6926268,13.7568547 L27.9072533,13.3554378 L27.9072533,13.3554378 L28.1135324,12.9540491 L28.1135324,12.9540491 L28.4017255,12.3696265 L28.4017255,12.3696265 L28.656804,11.8305445 L28.656804,11.8305445 L28.9305333,11.2292519 L28.9305333,11.2292519 L29.173978,10.6709451 L16.3660659,10.8652308 C19.3207912,4.71665934 23.5256264,2.75885714 28.6825495,2.16808791 C29.2983736,2.09753846 29.9181538,2.05715385 30.5381813,2.04137088 L31.1581538,2.03358242 L47.9414505,2.03358242 Z M114.447121,40.7554286 C114.172835,40.7554286 113.931077,40.8187253 113.720967,40.9435604 C113.511736,41.0692747 113.335912,41.2336703 113.196132,41.4385055 C113.056352,41.6424615 112.949978,41.864 112.877011,42.1031209 C112.804044,42.3422418 112.767121,42.5752088 112.767121,42.8029011 C112.767121,43.0191648 112.800527,43.2196044 112.86822,43.405978 C112.935033,43.5932308 113.042286,43.7435604 113.187341,43.856967 C113.333275,43.9712527 113.522286,44.0275165 113.756132,44.0275165 C114.035692,44.0275165 114.280967,43.9633407 114.491077,43.834989 C114.700308,43.7066374 114.877011,43.5387253 115.019429,43.3321319 C115.163604,43.1255385 115.269978,42.9022418 115.339429,42.6631209 C115.409758,42.424 115.444923,42.1901538 115.444923,41.9624615 C115.444923,41.7470769 115.410637,41.5475165 115.343824,41.3637802 C115.276132,41.180044 115.169758,41.0323516 115.023824,40.9215824 C114.878769,40.8108132 114.686242,40.7554286 114.447121,40.7554286 Z M71.5294945,40.7554286 C71.2543297,40.7554286 71.0125714,40.8187253 70.8024615,40.9435604 C70.5932308,41.0692747 70.4174066,41.2336703 70.2776264,41.4385055 C70.1378462,41.6424615 70.0314725,41.864 69.9585055,42.1031209 C69.8855385,42.3422418 69.8486154,42.5752088 69.8486154,42.8029011 C69.8486154,43.0191648 69.882022,43.2196044 69.9497143,43.405978 C70.0165275,43.5932308 70.1237802,43.7435604 70.2688352,43.856967 C70.4147692,43.9712527 70.6037802,44.0275165 70.8376264,44.0275165 C71.1171868,44.0275165 71.3624615,43.9633407 71.5716923,43.834989 C71.7818022,43.7066374 71.9585055,43.5387253 72.1009231,43.3321319 C72.2450989,43.1255385 72.3514725,42.9022418 72.420044,42.6631209 C72.4903736,42.424 72.5264176,42.1901538 72.5264176,41.9624615 C72.5264176,41.7470769 72.4921319,41.5475165 72.4253187,41.3637802 C72.3585055,41.180044 72.2521319,41.0323516 72.1061978,40.9215824 C71.9602637,40.8108132 71.7677363,40.7554286 71.5294945,40.7554286 Z M90.8535385,41.2196923 L89.9717802,43.1440879 L90.9238681,43.1440879 L90.8535385,41.2196923 Z M53.690989,41.2193407 L52.8092308,43.1437363 L53.7621978,43.1437363 L53.690989,41.2193407 Z M108.743648,40.7734505 L108.016615,40.7734505 L107.737055,42.1026813 L108.507165,42.1026813 C108.559912,42.1026813 108.615297,42.0850989 108.673319,42.0499341 C108.731341,42.0156484 108.788484,41.9611429 108.843868,41.8881758 C108.899253,41.8152088 108.943209,41.7237802 108.974857,41.613011 C109.006505,41.5022418 109.023209,41.3703736 109.023209,41.2191648 C109.023209,41.1022418 109.008264,41.0125714 108.979253,40.9483956 C108.950242,40.8842198 108.915077,40.8385055 108.874637,40.8121319 C108.833319,40.7857582 108.789363,40.7734505 108.743648,40.7734505 Z M120.991297,40.7734505 L120.089319,40.7734505 L119.809758,42.1026813 L120.754813,42.1026813 C120.801407,42.1026813 120.853275,42.0824615 120.912176,42.042022 C120.970198,42.0007033 121.026462,41.9426813 121.07833,41.8661978 C121.131077,41.7914725 121.175033,41.700044 121.210198,41.5954286 C121.244484,41.4908132 121.262066,41.3765275 121.262066,41.2543297 C121.262066,41.1497143 121.248879,41.0618022 121.222505,40.9914725 C121.196132,40.922022 121.162725,40.8683956 121.122286,40.8297143 C121.080967,40.7919121 121.037011,40.7734505 120.991297,40.7734505 Z M85.386022,40.7734505 L84.484044,40.7734505 L84.2044835,42.1026813 L85.1495385,42.1026813 C85.1961319,42.1026813 85.248,42.0824615 85.3069011,42.042022 C85.3649231,42.0007033 85.4211868,41.9426813 85.4730549,41.8661978 C85.5258022,41.7914725 85.5697582,41.700044 85.6049231,41.5954286 C85.6392088,41.4908132 85.6567912,41.3765275 85.6567912,41.2543297 C85.6567912,41.1497143 85.6436044,41.0618022 85.6172308,40.9914725 C85.5908571,40.922022 85.5574505,40.8683956 85.517011,40.8297143 C85.4756923,40.7919121 85.4317363,40.7734505 85.386022,40.7734505 Z M159.751209,0.23715309 C160.013569,1.90923573 158.917403,3.7772078 158.129928,4.77816636 L157.917363,5.03841758 L157.917363,5.03841758 C155.513109,7.90718752 151.968559,9.5607398 148.237435,9.71622477 L147.863736,9.72676923 L83.7687912,10.6709451 L148.523956,13.1834725 L148.547308,13.2832211 L148.547308,13.2832211 L148.571263,13.4360317 L148.571263,13.4360317 L148.584533,13.5740584 C148.586336,13.5993869 148.58789,13.6258602 148.589126,13.6534525 L148.592174,13.8322271 L148.592174,13.8322271 L148.5843,14.0366165 C148.531393,14.8314888 148.191982,16.1179134 146.837252,17.6207423 L146.499341,17.979956 L146.499341,17.979956 C143.756982,20.8132454 140.038693,22.4783766 136.11317,22.7545878 L135.706374,22.7781978 L108.239121,24.0318242 L136.731611,26.1313293 L136.731611,26.1313293 L136.772369,26.1588922 L136.772369,26.1588922 L136.827826,26.2083503 L136.827826,26.2083503 L136.871422,26.2572948 L136.871422,26.2572948 L136.917065,26.3204266 L136.917065,26.3204266 L136.961966,26.3989537 C136.9765,26.4278295 136.990446,26.4594725 137.003339,26.494084 L137.038394,26.6070256 C137.0642,26.7089004 137.080521,26.8305869 137.080098,26.9752308 L137.071087,27.1600243 C137.017156,27.7486717 136.708571,28.6511546 135.806593,30.0142418 C135.123516,31.0445714 134.262857,31.899956 133.353846,32.6023736 C130.974303,34.441765 128.024176,36.0495093 125.020061,36.170461 L124.659341,36.1777582 L103.541099,36.1777582 L103.599081,36.0318843 L103.599081,36.0318843 L103.691113,35.7451071 L103.691113,35.7451071 L103.761498,35.4921416 L103.761498,35.4921416 L103.832188,35.2013007 L103.832188,35.2013007 L103.897253,34.8824835 C104.017802,34.2234725 104.069011,33.456 103.837363,32.9364396 C103.518242,32.217991 103.02539,31.7616116 102.671518,31.5089509 L102.49416,31.3909887 L102.49416,31.3909887 L102.355646,31.3113292 L102.355646,31.3113292 L102.267253,31.2678681 L101.66546,31.2540733 L101.66546,31.2540733 L100.882564,31.2232383 C100.825814,31.2204121 100.768606,31.2174164 100.711209,31.2142418 C99.9613187,31.172044 99.2272527,30.9777582 98.5556044,30.6436923 L98.0091808,30.3748812 C97.654221,30.1979498 97.3186172,30.0167945 97.0066344,29.7787604 L96.7771429,29.5887473 L101.010989,29.5957802 L100.930928,29.5096975 L100.930928,29.5096975 L100.802373,29.3906882 L100.802373,29.3906882 L100.659806,29.2726519 L100.659806,29.2726519 L100.473622,29.1327291 L100.473622,29.1327291 L100.240169,28.9734236 L100.240169,28.9734236 L100.056469,28.8576879 L100.056469,28.8576879 L99.8490541,28.735192 L99.8490541,28.735192 L99.6168421,28.6066778 L99.6168421,28.6066778 L99.3587506,28.472887 L99.3587506,28.472887 L99.0736972,28.3345613 C99.0238814,28.3111704 98.972897,28.2876214 98.9207216,28.2639298 L98.593196,28.1201927 L98.593196,28.1201927 L98.2360026,27.9737753 L98.2360026,27.9737753 L97.848059,27.8254193 L97.848059,27.8254193 L97.4282828,27.6758664 L97.4282828,27.6758664 L96.9755916,27.5258586 C96.89734,27.5008606 96.8176719,27.4758745 96.7365646,27.4509158 L96.2324715,27.3016162 L96.2324715,27.3016162 L95.6927574,27.1537161 L95.6927574,27.1537161 L95.11634,27.0079571 L95.11634,27.0079571 L94.5021369,26.8650811 C94.2909846,26.8180186 94.0733544,26.7715603 93.8490657,26.7258298 L93.156044,26.5909451 L93.156044,26.5909451 C91.6105842,26.3043054 89.8796163,26.0398226 88.0965695,25.7999163 L87.3808896,25.7052703 C86.7827021,25.6275005 86.1807048,25.5524972 85.5798396,25.4803502 L84.5201355,25.3558386 L84.5201355,25.3558386 L82.8395291,25.1687129 L82.8395291,25.1687129 L80.2582101,24.9028978 L80.2582101,24.9028978 L77.0928273,24.6079364 L77.0928273,24.6079364 L73.7873988,24.3338564 L73.7873988,24.3338564 L72.7331868,24.2551209 L72.7331868,24.2551209 L73.953913,24.1626514 L73.953913,24.1626514 L74.887152,24.10198 L74.887152,24.10198 L76.2662019,24.0256652 L76.2662019,24.0256652 L77.5853497,23.9675176 L77.5853497,23.9675176 L78.7236556,23.9297032 C78.8209604,23.9269885 78.9188069,23.9243956 79.0171429,23.9219341 C79.6391803,23.9062525 80.2861513,23.896787 80.9237372,23.8916896 L82.3691305,23.8868449 L84.7226034,23.9029274 L84.7226034,23.9029274 L85.9287912,23.9219341 C84.029011,22.2656703 81.9964835,20.6955604 79.6457143,19.9157802 C73.3995604,17.8436923 63.8127473,17.2696264 57.3336264,18.9153407 L56.9695254,19.0096348 L56.9695254,19.0096348 L56.2701144,19.2016579 C55.8164804,19.3310668 55.3879186,19.4630854 54.9831814,19.5966497 L54.3937883,19.7980223 L54.3937883,19.7980223 L53.8391966,20.0009154 C53.5704452,20.102609 53.3143934,20.2045735 53.0705151,20.3063599 L52.5988336,20.5095625 C52.5228733,20.5433457 52.4482266,20.5770759 52.374874,20.6107364 L51.9501319,20.8117305 L51.9501319,20.8117305 L51.5555132,21.0102548 L51.5555132,21.0102548 L51.1900824,21.2055112 L51.1900824,21.2055112 L50.8529037,21.3967016 L50.8529037,21.3967016 L50.5430416,21.583028 L50.5430416,21.583028 L50.2595604,21.7636923 L50.2595604,21.7636923 L50.0015247,21.9378965 L50.0015247,21.9378965 L49.7679987,22.1048425 L49.7679987,22.1048425 L49.4616189,22.3399067 L49.4616189,22.3399067 L49.2051234,22.5541509 L49.2051234,22.5541509 L48.9953543,22.7448817 L48.9953543,22.7448817 L48.8799082,22.8576425 L48.8799082,22.8576425 L48.7409997,23.0031989 L48.7409997,23.0031989 L48.6148298,23.1490595 L48.6148298,23.1490595 L48.5353846,23.2538022 L48.5353846,23.2538022 C51.5569231,21.5535824 54.8861538,20.6735824 58.276044,20.2498462 C58.5435943,20.2164396 58.8101499,20.1857196 59.0755189,20.1575527 L59.8678737,20.0805771 C60.1306772,20.0573823 60.3921019,20.0366069 60.6519558,20.018117 L61.4266124,19.9693703 C61.6831324,19.9553178 61.9378893,19.9434172 62.1906912,19.9335347 L62.9430395,19.909808 L62.9430395,19.909808 L63.6825047,19.8973879 L63.6825047,19.8973879 L64.4079343,19.8954721 L64.4079343,19.8954721 L65.1181756,19.9032586 L65.1181756,19.9032586 L65.8120762,19.9199449 L65.8120762,19.9199449 L66.4884834,19.944729 L66.4884834,19.944729 L67.1462447,19.9768084 L67.1462447,19.9768084 L68.0954042,20.0368517 L68.0954042,20.0368517 L68.7015082,20.0836599 L68.7015082,20.0836599 L69.2849321,20.1349558 L69.2849321,20.1349558 L69.8445236,20.189937 L69.8445236,20.189937 L70.37913,20.2478014 L70.37913,20.2478014 L70.8875987,20.3077467 L70.8875987,20.3077467 L71.5987724,20.3998113 L71.5987724,20.3998113 L72.4447647,20.5223597 L72.4447647,20.5223597 L73.1654601,20.6387913 L73.1654601,20.6387913 L73.9914011,20.7879308 L73.9914011,20.7879308 L74.6162637,20.9162198 L74.6162637,20.9162198 L71.868106,20.7949965 L71.868106,20.7949965 L70.3211918,20.7347 L70.3211918,20.7347 L69.101929,20.6981765 L69.101929,20.6981765 L68.2656804,20.6804158 L68.2656804,20.6804158 L67.4136464,20.6694477 C67.2704653,20.6682583 67.1267315,20.6674061 66.9824975,20.6669186 L66.1115108,20.6685854 L66.1115108,20.6685854 L65.2310391,20.6803062 C58.8930243,20.8034479 52.0184222,21.8016651 48.7815385,25.8357802 C48.6433407,25.9711648 48.509222,26.038189 48.3316958,26.0936791 L48.1379418,26.1474292 L48.1379418,26.1474292 L47.7699675,26.2412607 C47.5814017,26.291747 47.355956,26.3581538 47.0795604,26.4573187 C45.818022,26.9091868 45.1402198,27.9166593 44.6971429,29.0349011 L44.6087942,29.2740955 L44.6087942,29.2740955 L44.5143098,29.5559292 L44.5143098,29.5559292 L44.3707337,30.0172858 L44.3707337,30.0172858 L44.0518681,31.1351209 L41.1850549,31.1861099 C39.7120224,27.1318289 38.6322551,20.648062 41.1790589,14.6252516 L41.3503297,14.2331429 C44.9178022,5.69863736 53.3635165,0.199736264 62.698022,0.23715309 L76.9703419,0.270174645 L76.9703419,0.270174645 L91.6769534,0.280304793 L91.6769534,0.280304793 L159.751209,0.23715309 Z" id="Logo"></path>
            </g>
        </g>
    </g>
</svg>